<?xml version="1.0" ?><svg id="Layer_1" style="enable-background:new 0 0 512 512;" version="1.1" viewBox="0 0 512 512" xml:space="preserve" xmlns="http://www.w3.org/2000/svg" xmlns:xlink="http://www.w3.org/1999/xlink"><style type="text/css">
	.st0{fill:none;stroke:#000000;stroke-width:12;stroke-linecap:round;stroke-linejoin:round;stroke-miterlimit:10;}
	.st1{fill:none;stroke:#000000;stroke-width:10;stroke-miterlimit:10;}
</style><g><path class="st0" d="M117.2,91c0-11.7,0-23.3,0-35c0-23,13.4-40.2,34.6-44.5c3.6-0.7,7.3-0.8,10.9-0.8c62.3,0,124.7-0.1,187,0   c26.8,0,45,18,45,44.8c0,87.2,0,174.3,0,261.5"/><path class="st0" d="M394.8,337c0,0.3,0,0,0,0.3"/><path class="st0" d="M394.8,356.3c0,33.4,0,66.8,0,100.1c0,26.7-18.2,44.7-45,44.8c-62.5,0-125,0-187.5,0c-27.1,0-45-18.1-45-45.2   c0-66.7,0-133.3,0-200c0-40,0-99,0-139"/><path class="st1" d="M256.1,426.8c11.9,0.1,21.1,9.4,21.1,21.4c-0.1,11.9-9.5,21.1-21.4,21.1c-11.9-0.1-21.1-9.4-21.1-21.4   C234.8,435.9,244.2,426.7,256.1,426.8z"/><path d="M286.7,58.1h-61.5c-2.8,0-5.1-2.3-5.1-5.1v0c0-2.8,2.3-5.1,5.1-5.1h61.5c2.8,0,5.1,2.3,5.1,5.1v0   C291.8,55.8,289.5,58.1,286.7,58.1z"/></g></svg>